<svg version="1.1" xmlns="http://www.w3.org/2000/svg" viewBox="182 299 688 418" xml:space="preserve">
  <path fill="#8574FE" opacity="1.000000" stroke="none" d="
M676.760803,572.761353
	C647.545349,601.375061 614.758301,624.646240 579.820984,644.938904
	C540.249146,667.923584 498.726013,686.721985 454.795715,699.636108
	C434.111389,705.716675 412.838623,709.797852 391.821045,714.736267
	C390.762146,714.985107 389.593842,714.768372 388.291565,714.306458
	C445.591034,691.606750 500.715027,665.418030 545.454102,621.895264
	C545.170166,621.319031 544.886230,620.742737 544.602295,620.166504
	C542.039795,621.112793 539.449707,621.991089 536.918823,623.015564
	C494.498352,640.186890 450.744202,652.620300 405.404297,658.945679
	C387.660156,661.421204 369.726166,662.666443 351.842682,663.983398
	C320.743042,666.273621 290.068695,663.234436 260.036713,654.872742
	C239.839310,649.249146 220.956406,640.879944 204.916306,626.794861
	C184.021286,608.446472 176.747467,582.078857 185.439682,555.191223
	C191.988113,534.934875 203.208939,517.338806 215.883728,500.520935
	C229.463943,482.501648 244.824524,466.009766 261.603058,451.071136
	C279.839844,434.834198 299.214386,419.874359 318.132477,404.406097
	C319.037750,403.665863 320.326111,403.394135 321.436066,402.904236
	C321.717163,403.268311 321.998291,403.632385 322.279388,403.996429
	C320.901855,405.476379 319.598511,407.034424 318.135620,408.424561
	C295.806152,429.643982 276.250732,453.111481 260.851501,479.857422
	C252.481873,494.394104 246.402786,509.829407 245.039505,526.758667
	C243.110458,550.714050 252.924500,569.398621 271.180756,584.187439
	C291.512787,600.657776 315.545197,608.094727 340.843445,611.847534
	C353.144287,613.672241 365.649353,614.565308 378.089233,614.916992
	C405.981964,615.705383 433.504242,612.103577 460.821381,606.680481
	C521.153442,594.703125 577.473938,572.317017 630.511658,541.398010
	C660.548401,523.887756 688.548584,503.698273 712.825134,478.628662
	C727.924316,463.036163 740.371765,445.735992 747.500977,424.987610
	C747.880676,423.882690 748.583801,422.888885 749.136414,421.843353
	C749.585022,421.866791 750.033630,421.890228 750.482239,421.913666
	C750.957458,423.676178 751.753113,425.419952 751.857300,427.204132
	C752.690308,441.474182 750.821594,455.411774 746.427979,469.017334
	C738.608826,493.230286 726.155823,515.013062 710.411743,534.773865
	C699.957886,547.894714 688.191284,559.969666 676.760803,572.761353
z"/>
  <path fill="#8674FE" opacity="1.000000" stroke="none" d="
M323.506744,424.502136
	C394.871490,357.398193 480.720001,319.974396 574.174683,297.737274
	C574.532288,298.266876 574.889832,298.796478 575.247437,299.326080
	C574.361938,300.094025 573.597412,301.133575 572.573059,301.589539
	C555.102539,309.366669 537.412659,316.677582 520.144836,324.878052
	C488.490814,339.910645 458.743408,358.173859 431.001373,379.618134
	C408.127350,397.299469 386.965302,416.757507 370.181061,440.499084
	C359.897247,455.045624 351.674194,470.556702 350.915314,488.931519
	C350.182068,506.685669 357.701141,520.893860 370.532715,532.447876
	C388.705994,548.811707 410.982727,556.325195 434.421326,561.029724
	C460.773743,566.319031 487.300354,566.250122 513.902344,563.325928
	C515.142883,563.189575 516.411499,563.308472 518.975403,563.308472
	C517.206299,564.670349 516.502747,565.540527 515.604492,565.855774
	C488.392303,575.406311 460.790222,583.405090 431.788208,584.957825
	C418.180267,585.686401 404.463776,586.637329 390.913452,585.733337
	C360.672272,583.716064 331.614685,576.983704 306.994415,557.924561
	C288.326111,543.473083 276.770355,524.901245 279.269318,500.408264
	C280.177887,491.503204 283.087433,482.492218 286.697998,474.235321
	C295.078552,455.070068 308.501526,439.351624 323.506744,424.502136
z"/>
  <path fill="#8674FE" opacity="1.000000" stroke="none" d="
M635.460083,328.269043
	C628.037292,328.903442 621.070496,329.438660 614.101624,329.946655
	C613.640015,329.980316 613.163269,329.806427 611.057556,329.459686
	C613.732849,327.925446 615.164307,326.732452 616.808228,326.217438
	C642.252808,318.245972 668.167847,312.397339 694.754211,310.005524
	C708.984009,308.725372 723.301270,307.063690 737.531860,307.426605
	C767.917236,308.201355 797.967224,311.667114 825.666138,325.775635
	C842.126892,334.159943 855.637512,345.664764 863.118347,362.996216
	C870.456787,379.997833 868.856445,397.177307 862.906494,414.164703
	C854.714111,437.554718 840.467590,457.080383 823.608582,474.897827
	C800.714050,499.093872 775.074280,519.932434 746.892578,537.656738
	C743.375732,539.868591 739.692871,541.817505 736.072266,543.862366
	C735.563049,544.149963 734.969971,544.289001 733.656067,543.758118
	C734.402100,542.661194 735.005127,541.425476 735.915344,540.487976
	C751.252625,524.692139 765.412476,507.930573 777.779358,489.688873
	C790.903076,470.330902 800.840454,449.525787 804.660217,426.320740
	C810.048157,393.588928 797.500977,367.293457 767.623596,350.243439
	C746.581726,338.235596 723.475525,332.364227 699.686096,330.281921
	C678.529541,328.430084 657.179993,328.783478 635.460083,328.269043
z"/>
  <path fill="#8674FE" opacity="1.000000" stroke="none" d="
M587.612061,361.655609
	C610.538879,357.363953 633.215149,355.664642 656.032471,358.100128
	C669.646545,359.553253 682.932129,362.566925 695.173950,369.137299
	C719.449829,382.166443 726.759521,403.765564 715.484131,428.962280
	C708.882080,443.715698 698.391357,455.495178 686.843567,466.386627
	C662.171753,489.656342 633.146973,506.030029 602.116943,519.134155
	C601.065491,519.578186 599.956055,519.884888 598.066528,519.566895
	C599.244080,518.039062 600.261902,516.348877 601.624451,515.009155
	C612.058289,504.750610 623.115845,495.061829 632.889404,484.213776
	C643.594116,472.332336 651.565979,458.484894 652.695679,442.074829
	C653.411621,431.675659 649.243408,422.597046 641.342407,415.486420
	C631.387634,406.527374 619.157654,402.905396 606.348755,401.005341
	C570.189697,395.641479 535.556091,402.536896 501.687897,414.708557
	C477.111847,423.540710 454.320923,435.808899 433.223846,451.215851
	C431.955322,452.142242 430.527039,452.849915 428.820343,453.045990
	C470.233856,402.956970 524.255798,374.659485 587.612061,361.655609
z"/>
  <path fill="#8574FE" opacity="1.000000" stroke="none" d="
M549.658569,446.328186
	C561.209473,457.878143 565.416504,471.265228 560.780884,486.718140
	C556.128296,502.227631 545.334167,511.660065 529.724304,515.409180
	C501.248047,522.248596 470.653900,497.240692 480.492950,464.070190
	C486.793640,442.828583 508.601593,433.082336 525.640991,435.551910
	C534.765503,436.874329 542.511658,440.243805 549.658569,446.328186
z"/>
</svg>
